<?xml version="1.0" encoding="utf-8"?>
<!-- Generator: Adobe Illustrator 24.1.3, SVG Export Plug-In . SVG Version: 6.00 Build 0)  -->
<svg version="1.1" id="Layer_1" xmlns="http://www.w3.org/2000/svg" xmlns:xlink="http://www.w3.org/1999/xlink" x="0px" y="0px"
	 viewBox="0 0 510 837" style="enable-background:new 0 0 510 837;" xml:space="preserve">
<style type="text/css">
	.st0{fill:#90AF9F;}
</style>
<g id="Layer_2_1_">
	<g id="Layer_1-2">
		<path class="st0" d="M392.5,806.8c-42.9-31.1-84-64.8-122.9-100.8c-38.7-35.8-74.4-74.7-106.8-116.3
			c-32.3-41.7-60.2-86.8-83-134.3c-23-47.9-39.9-98.5-50.1-150.7c-5-26.1-8.1-52.6-9.2-79.1c-1.4-20.4,1.2-40.9,7.7-60.3
			c6.2-17.2,18.1-33.1,36.7-37.5c24.8-5.9,47.6,11,63.6,28.1c18.1,19.1,32.8,42.1,46.3,65.1c13.6,23.2,25.8,47,36.7,71.5
			c23.2,51.5,42.6,104.7,61.9,157.8c20.1,55.3,39.3,110.9,57.4,166.9c18.2,56,35.4,112.5,51.7,169.5c3.9,13.8,7.7,27.5,11.5,41.4
			c0.4,1.3,1.7,2,2.9,1.6c1.3-0.4,2-1.7,1.6-2.9c-16-58.2-33.2-116.2-51.4-173.8c-18.2-57.6-37.4-114.7-57.4-171.2
			c-19.5-54.9-39.4-109.8-62-163.5c-21.3-50.7-46-100.6-78.9-144.8c-14.4-19.1-31.4-39.1-54.6-47.9c-19.3-7.7-41.3-2.9-55.5,12.2
			c-13.2,14.2-19.1,34.1-21.7,52.9c-3.2,23.2-1.2,47,1.3,70.2c5.9,53.6,19.1,106.2,39.2,156.2c20.1,50,45.8,97.5,76.6,141.7
			c30.6,43.8,65.1,84.8,103,122.5c38,37.8,78.4,73.1,121.1,105.7c10.4,8.1,21,16,31.7,23.7c2.5,1.8,4.9-2.3,2.4-4.1L392.5,806.8z"/>
		<path class="st0" d="M464.3,775.8c-18.3-50.2-35.5-100.8-50.8-152c-15.3-51.2-28.8-103-39.6-155.3c-10.9-52-18.7-104.6-23.4-157.6
			c-4.7-52.7-5.5-105.7-2.4-158.5c1.1-26.1,3.9-52,8.5-77.7c4.5-22.3,13.7-44.9,34.5-56.5c9-5.4,19.6-7.3,29.9-5.6
			c11,2.9,20.5,9.7,26.8,19.1c13.9,18.9,23,42.1,29.3,64.3c13.1,46.5,13.8,95.5,11.5,143.5c-2.3,53.3-6.8,106.6-10.4,159.9
			c-3.8,56-7.6,112.1-11.5,168.1c-3.9,56-7.7,112.1-11.5,168.2l-2.2,41.1c-0.2,3.1,4.6,3.1,4.8,0c3.9-57.3,7.7-114.7,11.5-171.9
			l11.5-171.9c3.8-56.1,7.9-112.3,11.5-168.5c2.9-48.8,4.4-98.4-5.1-146.6c-4.4-23.3-12-45.9-22.5-67.1
			c-9.5-18.6-22.6-40.4-45.5-43.3c-20-2.5-39.8,9.3-51,25.1c-14.1,19.7-17.5,44.7-20.2,68.2c-6.1,53.8-7.9,108-5.4,162.1
			c2.6,53.9,8.6,107.7,18,160.8c9.3,53.6,21.8,107,36.3,159.5c14.6,52.6,31.3,104.8,49.4,156.4c4.4,12.5,8.9,25,13.4,37.5
			c1,2.9,5.7,1.6,4.6-1.3V775.8z"/>
		<path class="st0" d="M390.1,802.8c-21.6-25.8-42.4-52.3-62.3-79.4c-19.9-27.1-38.9-54.6-56.9-82.5c-18.1-28.1-35.3-56.7-51.7-85.9
			c-16.3-29.2-31.7-58.8-46.3-88.9c-14.5-30.1-28.1-60.8-40.7-91.9l-4.7-11.8c-1.1-2.8-5.7-1.6-4.6,1.3
			c12.4,31.2,25.8,62.1,40.1,92.6c14.3,30.5,29.6,60.5,46,90.1c16.2,29.5,33.4,58.5,51.6,87c18.2,28.5,37.1,56.4,56.8,83.6
			c19.7,27.1,40.1,53.6,61.3,79.4c2.7,3.3,5.4,6.5,8.1,9.8C388.8,808.6,392.1,805.2,390.1,802.8z"/>
		<path class="st0" d="M458.4,757.1c-7.4-30.6-14.6-61.7-21-92.6s-12.1-61.8-16.7-93c-4.5-31.2-7.7-62.5-9.4-93.9
			c-1.7-30.9-1.5-61.8,0.5-92.7c2-31,6.4-61.9,13-92.3c0.8-3.8,1.7-7.7,2.6-11.2c0.7-3-3.8-4.3-4.6-1.3
			c-7.2,30.2-12.2,60.9-14.8,91.9c-2.6,31.1-3.3,62.4-2,93.6c1.2,31.4,4.1,62.8,8.3,94s9.7,62.7,15.9,93.7
			c6.2,31.1,13.4,62.2,20.7,93.2c1,3.8,1.9,7.9,2.8,11.8C454.5,761.3,459.1,760,458.4,757.1L458.4,757.1z"/>
	</g>
</g>
</svg>
