<?xml version="1.0" encoding="utf-8"?>
<!-- Generator: Adobe Illustrator 24.1.3, SVG Export Plug-In . SVG Version: 6.00 Build 0)  -->
<svg version="1.1" id="Layer_1" xmlns="http://www.w3.org/2000/svg" xmlns:xlink="http://www.w3.org/1999/xlink" x="0px" y="0px"
	 viewBox="0 0 1096 905" style="enable-background:new 0 0 1096 905;" xml:space="preserve">
<style type="text/css">
	.st0{opacity:0.32;}
	.st1{fill:none;stroke:#F28383;stroke-width:8;stroke-linecap:round;stroke-linejoin:round;}
</style>
<g id="Layer_2_1_">
	<g id="Layer_1-2">
		<g class="st0">
			<path class="st1" d="M1083.3,359.8c33.5,139.1,0.7,288.9-96.4,388.5c-95.3,100.9-255,151.5-428.9,121.7
				c-175.2-27.7-323.8-122.3-421.4-217C38.2,556.1-9.4,459.1,1.5,382c11.3-78.8,81.7-132.6,179.4-187.7
				C278.8,141.1,404,86.3,532.1,51C661.5,16.3,773.1,15.9,870.8,67C966.9,117.2,1049.3,219,1083.3,359.8z"/>
			<path class="st1" d="M1004.6,386.2c24.1,115.6-8,237.1-90.5,318.7c-81.2,82.4-213.3,124.6-358.3,103.6
				C410,788.9,284,715.4,200.1,637.8c-84.4-79-126.9-162.1-118.5-232.6c8.8-71.6,67.6-123.9,150.4-173.3
				c94.4-54.1,196.1-94.2,302-119.3C752.4,55.7,949.1,146.8,1004.6,386.2z"/>
			<path class="st1" d="M910.4,412.4c34.8,181.3-127.7,353-356.8,323.6c-227.4-29-389.7-193.3-376.4-308.5
				c12.9-116.6,178-203.7,359.2-242.6C715.6,148.5,876,229.6,910.4,412.4z"/>
			<path class="st1" d="M837.1,428.7C859.3,569,730.2,698.2,551.9,680.1c-177.5-17.7-309.1-141.2-300.5-239.4
				c8-99,138.9-174.7,286.8-199.9C685,217,815.2,287.4,837.1,428.7z"/>
			<path class="st1" d="M741.3,444.9c10.3,90-75.8,170-191.6,162.6S344.8,524,348.2,453s90-127.4,192.2-139.5
				S730.9,354.5,741.3,444.9z"/>
			<path class="st1" d="M644.5,455.5c3.1,43.4-40.4,80.8-97.2,79.4c-56.8-1.4-102.4-36.8-102.1-75.3c0.4-38.6,44.2-69.9,97.4-73.6
				S641.3,411.9,644.5,455.5z"/>
		</g>
	</g>
</g>
</svg>
